<svg width="542" height="339" viewBox="0 0 542 339" fill="none" xmlns="http://www.w3.org/2000/svg">
<path d="M6 66.0259C6 58.0259 12.7021 54.6926 16.0532 54.0259H150V182.026H16.0532C12.7021 182.026 6 179.626 6 170.026C6 160.426 12.7021 158.026 16.0532 158.026H92.4574C96.4787 158.026 104.521 155.226 104.521 144.026C104.521 132.826 96.4787 130.026 92.4574 130.026H50.234C46.883 130.026 40.1809 127.626 40.1809 118.026C40.1809 108.426 46.883 106.026 50.234 106.026H124.628C127.979 105.359 134.681 101.626 134.681 92.0259C134.681 82.4259 127.979 78.6926 124.628 78.0259H16.0532C12.7021 77.3593 6 74.0259 6 66.0259Z" fill="url(#paint0_linear_1131_3372)"/>
<path d="M150 79.0259V0.0259161H60.4167C56.9444 0.0259161 50 2.52065 50 12.4996C50 22.4785 56.9444 24.9733 60.4167 24.9733H104.167C107.639 24.9733 114.583 27.8838 114.583 39.5259C114.583 51.168 107.639 54.0786 104.167 54.0786H10.4167C2.08333 54.0786 0 62.3943 0 66.5522C0 76.5312 6.94444 79.0259 10.4167 79.0259H150Z" fill="url(#paint1_linear_1131_3372)"/>
<path d="M150 157.026V236.026H60.4167C56.9444 236.026 50 233.531 50 223.552C50 213.573 56.9444 211.079 60.4167 211.079H104.167C107.639 211.079 114.583 208.168 114.583 196.526C114.583 184.884 107.639 181.973 104.167 181.973H10.4167C2.08333 181.973 0 173.657 0 169.5C0 159.521 6.94444 157.026 10.4167 157.026H150Z" fill="url(#paint2_linear_1131_3372)"/>
<path d="M366.665 72.9331V1.17679L542 232.519C491.904 231.141 471.24 218.168 466.23 211.279L366.665 72.9331Z" fill="url(#paint3_linear_1131_3372)"/>
<path d="M366.664 235.701V182.757H413.003C415.508 224.652 383.154 235.509 366.664 235.701Z" fill="url(#paint4_linear_1131_3372)"/>
<path d="M150 236.026V0.0259161C173 -0.777037 195.712 17.271 207.61 27.378L309.68 124.634V42.3405C309.68 1.71862 350.592 -0.741474 366.665 1.17679L366.664 235.701C347.879 237.104 322.622 217.67 309.68 204.625L207.61 109.671V194.842C207.61 231.91 165 236.026 150 236.026Z" fill="url(#paint5_linear_1131_3372)"/>
<path d="M104 323C102.187 319.96 100.16 316.707 97.92 313.24C95.68 309.72 93.36 306.2 90.96 302.68C88.56 299.107 86.1067 295.667 83.6 292.36C81.1467 289 78.8 285.987 76.56 283.32V323H66.64V267.56H74.88C77.0133 269.8 79.3067 272.467 81.76 275.56C84.2133 278.6 86.6667 281.773 89.12 285.08C91.6267 288.387 94.0267 291.72 96.32 295.08C98.6667 298.387 100.747 301.48 102.56 304.36V267.56H112.56V323H104ZM159.699 321.72C157.832 322.2 155.405 322.68 152.419 323.16C149.432 323.693 146.152 323.96 142.579 323.96C139.219 323.96 136.392 323.48 134.099 322.52C131.859 321.56 130.045 320.227 128.659 318.52C127.325 316.813 126.365 314.787 125.779 312.44C125.192 310.04 124.899 307.427 124.899 304.6V281.16H134.579V303.08C134.579 307.56 135.219 310.76 136.499 312.68C137.832 314.6 140.125 315.56 143.379 315.56C144.552 315.56 145.779 315.507 147.059 315.4C148.392 315.293 149.379 315.16 150.019 315V281.16H159.699V321.72ZM182.499 316.04C185.059 316.04 186.926 315.747 188.099 315.16C189.273 314.52 189.859 313.453 189.859 311.96C189.859 310.573 189.219 309.427 187.939 308.52C186.713 307.613 184.659 306.627 181.779 305.56C180.019 304.92 178.393 304.253 176.899 303.56C175.459 302.813 174.206 301.96 173.139 301C172.073 300.04 171.219 298.893 170.579 297.56C169.993 296.173 169.699 294.493 169.699 292.52C169.699 288.68 171.113 285.667 173.939 283.48C176.766 281.24 180.606 280.12 185.459 280.12C187.913 280.12 190.259 280.36 192.499 280.84C194.739 281.267 196.419 281.693 197.539 282.12L195.779 289.96C194.713 289.48 193.353 289.053 191.699 288.68C190.046 288.253 188.126 288.04 185.939 288.04C183.966 288.04 182.366 288.387 181.139 289.08C179.913 289.72 179.299 290.733 179.299 292.12C179.299 292.813 179.406 293.427 179.619 293.96C179.886 294.493 180.313 295 180.899 295.48C181.486 295.907 182.259 296.36 183.219 296.84C184.179 297.267 185.353 297.72 186.739 298.2C189.033 299.053 190.979 299.907 192.579 300.76C194.179 301.56 195.486 302.493 196.499 303.56C197.566 304.573 198.339 305.747 198.819 307.08C199.299 308.413 199.539 310.013 199.539 311.88C199.539 315.88 198.046 318.92 195.059 321C192.126 323.027 187.913 324.04 182.419 324.04C178.739 324.04 175.779 323.72 173.539 323.08C171.299 322.493 169.726 322.013 168.819 321.64L170.499 313.56C171.939 314.147 173.646 314.707 175.619 315.24C177.646 315.773 179.939 316.04 182.499 316.04ZM223.302 316.2C226.289 316.2 228.555 316.04 230.102 315.72V305C229.569 304.84 228.795 304.68 227.782 304.52C226.769 304.36 225.649 304.28 224.422 304.28C223.355 304.28 222.262 304.36 221.142 304.52C220.075 304.68 219.089 304.973 218.182 305.4C217.329 305.827 216.635 306.44 216.102 307.24C215.569 307.987 215.302 308.947 215.302 310.12C215.302 312.413 216.022 314.013 217.462 314.92C218.902 315.773 220.849 316.2 223.302 316.2ZM222.502 280.12C225.702 280.12 228.395 280.52 230.582 281.32C232.769 282.12 234.502 283.24 235.782 284.68C237.115 286.12 238.049 287.88 238.582 289.96C239.169 291.987 239.462 294.227 239.462 296.68V322.04C237.969 322.36 235.702 322.733 232.662 323.16C229.675 323.64 226.289 323.88 222.502 323.88C219.995 323.88 217.702 323.64 215.622 323.16C213.542 322.68 211.755 321.907 210.262 320.84C208.822 319.773 207.675 318.387 206.822 316.68C206.022 314.973 205.622 312.867 205.622 310.36C205.622 307.96 206.075 305.933 206.982 304.28C207.942 302.627 209.222 301.293 210.822 300.28C212.422 299.213 214.262 298.467 216.342 298.04C218.475 297.56 220.689 297.32 222.982 297.32C224.049 297.32 225.169 297.4 226.342 297.56C227.515 297.667 228.769 297.88 230.102 298.2V296.6C230.102 295.48 229.969 294.413 229.702 293.4C229.435 292.387 228.955 291.507 228.262 290.76C227.622 289.96 226.742 289.347 225.622 288.92C224.555 288.493 223.195 288.28 221.542 288.28C219.302 288.28 217.249 288.44 215.382 288.76C213.515 289.08 211.995 289.453 210.822 289.88L209.622 282.04C210.849 281.613 212.635 281.187 214.982 280.76C217.329 280.333 219.835 280.12 222.502 280.12ZM307.268 323C306.521 320.813 305.748 318.653 304.948 316.52C304.148 314.387 303.375 312.2 302.628 309.96H279.268C278.521 312.2 277.748 314.413 276.948 316.6C276.201 318.733 275.455 320.867 274.708 323H264.228C266.308 317.08 268.281 311.613 270.148 306.6C272.015 301.587 273.828 296.84 275.588 292.36C277.401 287.88 279.188 283.613 280.948 279.56C282.708 275.507 284.521 271.507 286.388 267.56H295.908C297.775 271.507 299.588 275.507 301.348 279.56C303.108 283.613 304.868 287.88 306.628 292.36C308.441 296.84 310.281 301.587 312.148 306.6C314.068 311.613 316.068 317.08 318.148 323H307.268ZM290.948 278.28C289.721 281.107 288.308 284.547 286.708 288.6C285.161 292.653 283.535 297.053 281.828 301.8H300.068C298.361 297.053 296.708 292.627 295.108 288.52C293.508 284.413 292.121 281 290.948 278.28ZM334.356 297.48C335.582 296.2 336.889 294.84 338.276 293.4C339.662 291.907 341.022 290.44 342.356 289C343.689 287.507 344.942 286.093 346.116 284.76C347.342 283.373 348.382 282.173 349.236 281.16H360.676C358.009 284.147 355.182 287.24 352.196 290.44C349.262 293.64 346.302 296.76 343.316 299.8C344.916 301.133 346.596 302.76 348.356 304.68C350.116 306.547 351.822 308.547 353.476 310.68C355.129 312.813 356.676 314.947 358.116 317.08C359.556 319.213 360.756 321.187 361.716 323H350.516C349.556 321.347 348.436 319.613 347.156 317.8C345.929 315.987 344.596 314.227 343.156 312.52C341.716 310.813 340.249 309.213 338.756 307.72C337.262 306.173 335.796 304.867 334.356 303.8V323H324.676V262.52L334.356 260.92V297.48ZM379.218 316.04C381.778 316.04 383.645 315.747 384.818 315.16C385.991 314.52 386.578 313.453 386.578 311.96C386.578 310.573 385.938 309.427 384.658 308.52C383.431 307.613 381.378 306.627 378.498 305.56C376.738 304.92 375.111 304.253 373.618 303.56C372.178 302.813 370.925 301.96 369.858 301C368.791 300.04 367.938 298.893 367.298 297.56C366.711 296.173 366.418 294.493 366.418 292.52C366.418 288.68 367.831 285.667 370.658 283.48C373.485 281.24 377.325 280.12 382.178 280.12C384.631 280.12 386.978 280.36 389.218 280.84C391.458 281.267 393.138 281.693 394.258 282.12L392.498 289.96C391.431 289.48 390.071 289.053 388.418 288.68C386.765 288.253 384.845 288.04 382.658 288.04C380.685 288.04 379.085 288.387 377.858 289.08C376.631 289.72 376.018 290.733 376.018 292.12C376.018 292.813 376.125 293.427 376.338 293.96C376.605 294.493 377.031 295 377.618 295.48C378.205 295.907 378.978 296.36 379.938 296.84C380.898 297.267 382.071 297.72 383.458 298.2C385.751 299.053 387.698 299.907 389.298 300.76C390.898 301.56 392.205 302.493 393.218 303.56C394.285 304.573 395.058 305.747 395.538 307.08C396.018 308.413 396.258 310.013 396.258 311.88C396.258 315.88 394.765 318.92 391.778 321C388.845 323.027 384.631 324.04 379.138 324.04C375.458 324.04 372.498 323.72 370.258 323.08C368.018 322.493 366.445 322.013 365.538 321.64L367.218 313.56C368.658 314.147 370.365 314.707 372.338 315.24C374.365 315.773 376.658 316.04 379.218 316.04ZM402.981 302.28C402.981 298.6 403.514 295.373 404.581 292.6C405.701 289.827 407.167 287.533 408.981 285.72C410.794 283.853 412.874 282.467 415.221 281.56C417.567 280.6 419.967 280.12 422.421 280.12C428.181 280.12 432.661 281.907 435.861 285.48C439.114 289.053 440.741 294.387 440.741 301.48C440.741 302.013 440.714 302.627 440.661 303.32C440.661 303.96 440.634 304.547 440.581 305.08H412.981C413.247 308.44 414.421 311.053 416.501 312.92C418.634 314.733 421.701 315.64 425.701 315.64C428.047 315.64 430.181 315.427 432.101 315C434.074 314.573 435.621 314.12 436.741 313.64L438.021 321.56C437.487 321.827 436.741 322.12 435.781 322.44C434.874 322.707 433.807 322.947 432.581 323.16C431.407 323.427 430.127 323.64 428.741 323.8C427.354 323.96 425.941 324.04 424.501 324.04C420.821 324.04 417.621 323.507 414.901 322.44C412.181 321.32 409.941 319.8 408.181 317.88C406.421 315.907 405.114 313.613 404.261 311C403.407 308.333 402.981 305.427 402.981 302.28ZM431.061 297.96C431.061 296.627 430.874 295.373 430.501 294.2C430.127 292.973 429.567 291.933 428.821 291.08C428.127 290.173 427.247 289.48 426.181 289C425.167 288.467 423.941 288.2 422.501 288.2C421.007 288.2 419.701 288.493 418.581 289.08C417.461 289.613 416.501 290.333 415.701 291.24C414.954 292.147 414.367 293.187 413.941 294.36C413.514 295.533 413.221 296.733 413.061 297.96H431.061ZM461.484 316.04C464.044 316.04 465.91 315.747 467.084 315.16C468.257 314.52 468.844 313.453 468.844 311.96C468.844 310.573 468.204 309.427 466.924 308.52C465.697 307.613 463.644 306.627 460.764 305.56C459.004 304.92 457.377 304.253 455.884 303.56C454.444 302.813 453.19 301.96 452.124 301C451.057 300.04 450.204 298.893 449.564 297.56C448.977 296.173 448.684 294.493 448.684 292.52C448.684 288.68 450.097 285.667 452.924 283.48C455.75 281.24 459.59 280.12 464.444 280.12C466.897 280.12 469.244 280.36 471.484 280.84C473.724 281.267 475.404 281.693 476.524 282.12L474.764 289.96C473.697 289.48 472.337 289.053 470.684 288.68C469.03 288.253 467.11 288.04 464.924 288.04C462.95 288.04 461.35 288.387 460.124 289.08C458.897 289.72 458.284 290.733 458.284 292.12C458.284 292.813 458.39 293.427 458.604 293.96C458.87 294.493 459.297 295 459.884 295.48C460.47 295.907 461.244 296.36 462.204 296.84C463.164 297.267 464.337 297.72 465.724 298.2C468.017 299.053 469.964 299.907 471.564 300.76C473.164 301.56 474.47 302.493 475.484 303.56C476.55 304.573 477.324 305.747 477.804 307.08C478.284 308.413 478.524 310.013 478.524 311.88C478.524 315.88 477.03 318.92 474.044 321C471.11 323.027 466.897 324.04 461.404 324.04C457.724 324.04 454.764 323.72 452.524 323.08C450.284 322.493 448.71 322.013 447.804 321.64L449.484 313.56C450.924 314.147 452.63 314.707 454.604 315.24C456.63 315.773 458.924 316.04 461.484 316.04Z" fill="#3C3C3C"/>
<defs>
<linearGradient id="paint0_linear_1131_3372" x1="285.5" y1="-33.0582" x2="279.588" y2="264.72" gradientUnits="userSpaceOnUse">
<stop stop-color="#553DF7"/>
<stop offset="1" stop-color="#1B7CFC"/>
</linearGradient>
<linearGradient id="paint1_linear_1131_3372" x1="285.5" y1="-33.0582" x2="279.588" y2="264.72" gradientUnits="userSpaceOnUse">
<stop stop-color="#553DF7"/>
<stop offset="1" stop-color="#1B7CFC"/>
</linearGradient>
<linearGradient id="paint2_linear_1131_3372" x1="285.5" y1="-33.0582" x2="279.588" y2="264.72" gradientUnits="userSpaceOnUse">
<stop stop-color="#553DF7"/>
<stop offset="1" stop-color="#1B7CFC"/>
</linearGradient>
<linearGradient id="paint3_linear_1131_3372" x1="285.5" y1="-33.0582" x2="279.588" y2="264.72" gradientUnits="userSpaceOnUse">
<stop stop-color="#553DF7"/>
<stop offset="1" stop-color="#1B7CFC"/>
</linearGradient>
<linearGradient id="paint4_linear_1131_3372" x1="285.5" y1="-33.0582" x2="279.588" y2="264.72" gradientUnits="userSpaceOnUse">
<stop stop-color="#553DF7"/>
<stop offset="1" stop-color="#1B7CFC"/>
</linearGradient>
<linearGradient id="paint5_linear_1131_3372" x1="285.5" y1="-33.0582" x2="279.588" y2="264.72" gradientUnits="userSpaceOnUse">
<stop stop-color="#553DF7"/>
<stop offset="1" stop-color="#1B7CFC"/>
</linearGradient>
</defs>
</svg>
