<svg width="60" height="27" viewBox="0 0 60 27" fill="none" xmlns="http://www.w3.org/2000/svg">
<path d="M0.664207 7.30914C0.664207 6.42353 1.40614 6.05453 1.77711 5.98073H16.6052V20.1505H1.77711C1.40614 20.1505 0.664207 19.8848 0.664207 18.8221C0.664207 17.7593 1.40614 17.4936 1.77711 17.4936H10.2351C10.6803 17.4936 11.5706 17.1837 11.5706 15.9438C11.5706 14.704 10.6803 14.394 10.2351 14.394H5.56096C5.19 14.394 4.44806 14.1283 4.44806 13.0656C4.44806 12.0029 5.19 11.7372 5.56096 11.7372H13.7964C14.1674 11.6634 14.9093 11.2501 14.9093 10.1874C14.9093 9.12464 14.1674 8.71136 13.7964 8.63756H1.77711C1.40614 8.56376 0.664207 8.19475 0.664207 7.30914Z" fill="url(#paint0_linear_507_139)"/>
<path d="M16.6052 8.74826V0.00286894H6.68819C6.30381 0.00286894 5.53506 0.279039 5.53506 1.38372C5.53506 2.4884 6.30381 2.76457 6.68819 2.76457H11.5314C11.9157 2.76457 12.6845 3.08677 12.6845 4.37556C12.6845 5.66436 11.9157 5.98656 11.5314 5.98656H1.15314C0.230627 5.98656 0 6.90712 0 7.36741C0 8.47209 0.768758 8.74826 1.15314 8.74826H16.6052Z" fill="url(#paint1_linear_507_139)"/>
<path d="M16.6052 17.3829V26.1283H6.68819C6.30381 26.1283 5.53506 25.8522 5.53506 24.7475C5.53506 23.6428 6.30381 23.3666 6.68819 23.3666H11.5314C11.9157 23.3666 12.6845 23.0444 12.6845 21.7556C12.6845 20.4668 11.9157 20.1446 11.5314 20.1446H1.15314C0.230627 20.1446 0 19.2241 0 18.7638C0 17.6591 0.768758 17.3829 1.15314 17.3829H16.6052Z" fill="url(#paint2_linear_507_139)"/>
<path d="M40.5902 8.07377V0.130272L60 25.7401C54.4543 25.5876 52.1667 24.1514 51.6122 23.3888L40.5902 8.07377Z" fill="url(#paint3_linear_507_139)"/>
<path d="M40.5902 26.0924V20.2314H45.7199C45.9972 24.8692 42.4156 26.0711 40.5902 26.0924Z" fill="url(#paint4_linear_507_139)"/>
<path d="M16.6052 26.1283V0.00286894C19.1513 -0.0860189 21.6656 1.91192 22.9827 3.03078L34.282 13.7971V4.68714C34.282 0.190253 38.8109 -0.082082 40.5902 0.130272L40.5902 26.0924C38.5105 26.2476 35.7146 24.0963 34.282 22.6523L22.9827 12.1408V21.5692C22.9827 25.6727 18.2657 26.1283 16.6052 26.1283Z" fill="url(#paint5_linear_507_139)"/>
<defs>
<linearGradient id="paint0_linear_507_139" x1="31.6052" y1="-3.65958" x2="30.9507" y2="29.3048" gradientUnits="userSpaceOnUse">
<stop stop-color="#553DF7"/>
<stop offset="1" stop-color="#1B7CFC"/>
</linearGradient>
<linearGradient id="paint1_linear_507_139" x1="31.6052" y1="-3.65958" x2="30.9507" y2="29.3048" gradientUnits="userSpaceOnUse">
<stop stop-color="#553DF7"/>
<stop offset="1" stop-color="#1B7CFC"/>
</linearGradient>
<linearGradient id="paint2_linear_507_139" x1="31.6052" y1="-3.65958" x2="30.9507" y2="29.3048" gradientUnits="userSpaceOnUse">
<stop stop-color="#553DF7"/>
<stop offset="1" stop-color="#1B7CFC"/>
</linearGradient>
<linearGradient id="paint3_linear_507_139" x1="31.6052" y1="-3.65958" x2="30.9507" y2="29.3048" gradientUnits="userSpaceOnUse">
<stop stop-color="#553DF7"/>
<stop offset="1" stop-color="#1B7CFC"/>
</linearGradient>
<linearGradient id="paint4_linear_507_139" x1="31.6052" y1="-3.65958" x2="30.9507" y2="29.3048" gradientUnits="userSpaceOnUse">
<stop stop-color="#553DF7"/>
<stop offset="1" stop-color="#1B7CFC"/>
</linearGradient>
<linearGradient id="paint5_linear_507_139" x1="31.6052" y1="-3.65958" x2="30.9507" y2="29.3048" gradientUnits="userSpaceOnUse">
<stop stop-color="#553DF7"/>
<stop offset="1" stop-color="#1B7CFC"/>
</linearGradient>
</defs>
</svg>
