<svg width="60" height="60" viewBox="0 0 60 60" fill="none" xmlns="http://www.w3.org/2000/svg">
<path d="M16.5225 12.5325C20.2706 9.30051 25.0509 7.51552 30 7.5C40.0875 7.5 48.4613 15 49.3725 24.6712C55.3425 25.515 60 30.5137 60 36.6487C60 43.3838 54.3825 48.75 47.5763 48.75H14.1788C6.405 48.75 0 42.6225 0 34.9425C0 28.3312 4.7475 22.8562 11.0325 21.4688C11.5687 18.2325 13.65 15.0075 16.5225 12.5325ZM18.9713 15.3713C16.1325 17.82 14.6475 20.7713 14.6475 23.0813V24.7613L12.9788 24.945C7.74 25.5187 3.75 29.82 3.75 34.9425C3.75 40.4437 8.3625 45 14.1788 45H47.5763C52.425 45 56.25 41.205 56.25 36.6487C56.25 32.0887 52.425 28.2938 47.5763 28.2938H45.7013V26.4188C45.705 18.0938 38.73 11.25 30 11.25C25.9495 11.2662 22.0382 12.7291 18.9713 15.375V15.3713Z" fill="#553DF7"/>
</svg>
