<svg width="60" height="60" viewBox="0 0 60 60" fill="none" xmlns="http://www.w3.org/2000/svg">
<g clip-path="url(#clip0_507_164)">
<path d="M37.5 11.25C38.4946 11.25 39.4484 11.6451 40.1516 12.3483C40.8549 13.0516 41.25 14.0054 41.25 15V45C41.25 45.9946 40.8549 46.9484 40.1516 47.6516C39.4484 48.3549 38.4946 48.75 37.5 48.75H22.5C21.5054 48.75 20.5516 48.3549 19.8484 47.6516C19.1451 46.9484 18.75 45.9946 18.75 45V15C18.75 14.0054 19.1451 13.0516 19.8484 12.3483C20.5516 11.6451 21.5054 11.25 22.5 11.25H37.5ZM22.5 7.5C20.5109 7.5 18.6032 8.29018 17.1967 9.6967C15.7902 11.1032 15 13.0109 15 15V45C15 46.9891 15.7902 48.8968 17.1967 50.3033C18.6032 51.7098 20.5109 52.5 22.5 52.5H37.5C39.4891 52.5 41.3968 51.7098 42.8033 50.3033C44.2098 48.8968 45 46.9891 45 45V15C45 13.0109 44.2098 11.1032 42.8033 9.6967C41.3968 8.29018 39.4891 7.5 37.5 7.5H22.5Z" fill="#553DF7"/>
<path d="M30 45.0001C30.9946 45.0001 31.9484 44.605 32.6517 43.9018C33.3549 43.1985 33.75 42.2447 33.75 41.2501C33.75 40.2556 33.3549 39.3017 32.6517 38.5985C31.9484 37.8952 30.9946 37.5001 30 37.5001C29.0055 37.5001 28.0516 37.8952 27.3484 38.5985C26.6451 39.3017 26.25 40.2556 26.25 41.2501C26.25 42.2447 26.6451 43.1985 27.3484 43.9018C28.0516 44.605 29.0055 45.0001 30 45.0001ZM5.99628 15.2176C6.21399 15.3328 6.40687 15.4898 6.5639 15.6795C6.72093 15.8693 6.83904 16.0881 6.91147 16.3235C6.98391 16.5589 7.00925 16.8063 6.98606 17.0515C6.96286 17.2967 6.89158 17.535 6.77628 17.7526C4.7822 21.5266 3.74316 25.7317 3.75003 30.0001C3.75003 34.4251 4.84503 38.5951 6.77628 42.2476C7.00901 42.6872 7.05758 43.2013 6.9113 43.6767C6.76502 44.1521 6.43588 44.5499 5.99628 44.7826C5.55668 45.0153 5.04264 45.0639 4.56724 44.9176C4.09183 44.7714 3.69401 44.4422 3.46128 44.0026C1.18137 39.6878 -0.00700331 34.8802 3.10478e-05 30.0001C3.10478e-05 24.9489 1.25253 20.1789 3.46128 15.9976C3.57647 15.7799 3.73343 15.587 3.92318 15.43C4.11294 15.273 4.33177 15.1549 4.56718 15.0824C4.8026 15.01 5.04997 14.9846 5.29518 15.0078C5.54039 15.031 5.77863 15.1023 5.99628 15.2176ZM54.0038 15.2176C54.2214 15.1023 54.4597 15.031 54.7049 15.0078C54.9501 14.9846 55.1975 15.01 55.4329 15.0824C55.6683 15.1549 55.8871 15.273 56.0769 15.43C56.2666 15.587 56.4236 15.7799 56.5388 15.9976C58.8188 20.3124 60.0072 25.12 60 30.0001C60.0072 34.8803 58.8188 39.6879 56.5388 44.0026C56.3061 44.4422 55.9082 44.7714 55.4328 44.9176C54.9574 45.0639 54.4434 45.0153 54.0038 44.7826C53.5642 44.5499 53.235 44.1521 53.0888 43.6767C52.9425 43.2013 52.9911 42.6872 53.2238 42.2476C55.2179 38.4736 56.2569 34.2685 56.25 30.0001C56.25 25.5751 55.155 21.4051 53.2238 17.7526C53.1085 17.535 53.0372 17.2967 53.014 17.0515C52.9908 16.8063 53.0162 16.5589 53.0886 16.3235C53.161 16.0881 53.2791 15.8693 53.4362 15.6795C53.5932 15.4898 53.7861 15.3328 54.0038 15.2176ZM11.4638 20.7526C11.6934 20.8421 11.903 20.976 12.0808 21.1466C12.2586 21.3172 12.401 21.5212 12.4999 21.7469C12.5989 21.9726 12.6523 22.2155 12.6573 22.4619C12.6622 22.7082 12.6186 22.9531 12.5288 23.1826C11.681 25.3555 11.2473 27.6678 11.25 30.0001C11.25 32.4076 11.7 34.7064 12.525 36.8176C12.6297 37.0494 12.6861 37.3 12.6908 37.5542C12.6956 37.8085 12.6486 38.061 12.5526 38.2965C12.4567 38.532 12.3139 38.7456 12.1328 38.9241C11.9518 39.1027 11.7363 39.2426 11.4995 39.3352C11.2628 39.4279 11.0096 39.4715 10.7554 39.4632C10.5013 39.455 10.2515 39.3952 10.0212 39.2873C9.79086 39.1795 9.5849 39.026 9.4158 38.8361C9.24671 38.6462 9.11801 38.4238 9.03753 38.1826C8.01928 35.5749 7.49781 32.7996 7.50003 30.0001C7.50003 27.1164 8.04378 24.3564 9.03753 21.8176C9.21834 21.3549 9.57541 20.9828 10.0303 20.7831C10.4852 20.5835 11.0008 20.5725 11.4638 20.7526ZM48.5363 20.7526C48.7658 20.6628 49.0107 20.6192 49.257 20.6241C49.5034 20.6291 49.7463 20.6825 49.972 20.7815C50.1977 20.8804 50.4017 21.0228 50.5723 21.2006C50.7429 21.3784 50.8768 21.588 50.9663 21.8176C51.9563 24.3564 52.5 27.1164 52.5 30.0001C52.5 32.8839 51.9563 35.6439 50.9625 38.1826C50.7647 38.6207 50.4062 38.9662 49.961 39.1475C49.5158 39.3288 49.0179 39.3323 48.5703 39.157C48.1226 38.9818 47.7594 38.6414 47.5555 38.206C47.3517 37.7706 47.3229 37.2736 47.475 36.8176C48.3 34.7064 48.75 32.4076 48.75 30.0001C48.75 27.5926 48.3 25.2939 47.475 23.1826C47.2935 22.7197 47.3034 22.2035 47.5024 21.7478C47.7014 21.2921 48.0733 20.9341 48.5363 20.7526Z" fill="#553DF7"/>
</g>
<defs>
<clipPath id="clip0_507_164">
<rect width="60" height="60" fill="white"/>
</clipPath>
</defs>
</svg>
