<svg width="60" height="60" viewBox="0 0 60 60" fill="none" xmlns="http://www.w3.org/2000/svg">
<path d="M0 30C0 22.0435 3.16071 14.4129 8.7868 8.7868C14.4129 3.16071 22.0435 0 30 0C37.9565 0 45.5871 3.16071 51.2132 8.7868C56.8393 14.4129 60 22.0435 60 30C60 37.9565 56.8393 45.5871 51.2132 51.2132C45.5871 56.8393 37.9565 60 30 60C22.0435 60 14.4129 56.8393 8.7868 51.2132C3.16071 45.5871 0 37.9565 0 30ZM28.125 4.03875C25.6125 4.80375 23.1187 7.11375 21.0487 10.995C20.3667 12.2854 19.7802 13.6239 19.2938 15H28.125V4.03875ZM15.3375 15C15.9625 13.0081 16.7658 11.0765 17.7375 9.22875C18.3859 8.00271 19.1347 6.83246 19.9762 5.73C15.33 7.65685 11.3325 10.8736 8.45625 15H15.3375ZM13.155 28.125C13.2675 24.8363 13.6725 21.6825 14.325 18.75H6.2775C4.87919 21.6939 4.0448 24.8738 3.8175 28.125H13.155ZM18.1763 18.75C17.4387 21.8243 17.014 24.9653 16.9087 28.125H28.125V18.75H18.1763ZM31.875 18.75V28.125H43.0875C42.9836 24.9654 42.5602 21.8244 41.8237 18.75H31.875ZM16.9125 31.875C17.0165 35.0346 17.4399 38.1756 18.1763 41.25H28.125V31.875H16.9125ZM31.875 31.875V41.25H41.8237C42.525 38.3813 42.9713 35.22 43.0913 31.875H31.875ZM19.2938 45C19.8113 46.4475 20.4 47.79 21.0487 49.005C23.1187 52.8863 25.6162 55.1925 28.125 55.9613V45H19.2938ZM19.9762 54.27C19.1347 53.1676 18.3858 51.9973 17.7375 50.7712C16.7658 48.9235 15.9625 46.9919 15.3375 45H8.45625C11.3324 49.1266 15.3299 52.3433 19.9762 54.27ZM14.325 41.25C13.6469 38.1677 13.2552 35.0294 13.155 31.875H3.8175C4.05 35.2125 4.90875 38.3737 6.2775 41.25H14.325ZM40.0238 54.27C44.6701 52.3433 48.6676 49.1266 51.5438 45H44.6625C44.0374 46.9919 43.2342 48.9235 42.2625 50.7712C41.6143 51.9974 40.8655 53.1677 40.0238 54.27ZM31.875 45V55.9613C34.3875 55.1963 36.8813 52.8863 38.9513 49.005C39.6 47.79 40.1887 46.4475 40.7062 45H31.875ZM45.675 41.25H53.7225C55.0912 38.3737 55.95 35.2125 56.1825 31.875H46.845C46.7448 35.0294 46.3532 38.1678 45.675 41.25ZM56.1825 28.125C55.9551 24.8738 55.1207 21.694 53.7225 18.75H45.675C46.3275 21.6825 46.7325 24.8363 46.845 28.125H56.1825ZM42.2625 9.22875C43.1888 10.9688 43.995 12.9037 44.6625 15H51.5438C48.6676 10.8734 44.6701 7.65667 40.0238 5.73C40.8413 6.795 41.5913 7.9725 42.2625 9.22875ZM40.7062 15C40.2199 13.6239 39.6333 12.2853 38.9513 10.995C36.8813 7.11375 34.3875 4.8075 31.875 4.03875V15H40.7062Z" fill="#553DF7"/>
</svg>
