<svg width="60" height="60" viewBox="0 0 60 60" fill="none" xmlns="http://www.w3.org/2000/svg">
<path d="M20.0175 5.9625C16.446 6.94681 12.8987 8.01712 9.37877 9.1725C9.05735 9.27662 8.77164 9.46891 8.55418 9.72748C8.33672 9.98605 8.19625 10.3005 8.14877 10.635C6.07127 26.2238 10.8713 37.5975 16.5975 45.09C19.022 48.294 21.9128 51.1166 25.1738 53.4637C26.4713 54.3787 27.6188 55.0387 28.5225 55.4625C28.9725 55.6763 29.34 55.8187 29.6213 55.905C29.7443 55.9481 29.8711 55.9795 30 55.9987C30.1274 55.978 30.2529 55.9467 30.375 55.905C30.66 55.8187 31.0275 55.6763 31.4775 55.4625C32.3775 55.0387 33.5288 54.375 34.8263 53.4637C38.0872 51.1165 40.9781 48.2939 43.4025 45.09C49.1288 37.6012 53.9288 26.2238 51.8513 10.635C51.8042 10.3003 51.6639 9.98569 51.4464 9.72705C51.2289 9.46841 50.9429 9.27623 50.6213 9.1725C48.18 8.37375 44.0588 7.0725 39.9825 5.96625C35.82 4.8375 31.9913 4.00125 30 4.00125C28.0125 4.00125 24.18 4.8375 20.0175 5.96625V5.9625ZM19.02 2.1C23.0888 0.99375 27.4125 0 30 0C32.5875 0 36.9113 0.99375 40.98 2.1C45.1425 3.225 49.3388 4.55625 51.8063 5.3625C52.8379 5.70319 53.7526 6.32799 54.4451 7.16513C55.1376 8.00226 55.5799 9.01777 55.7213 10.095C57.9563 26.8838 52.77 39.3263 46.4775 47.5575C43.8092 51.0787 40.6275 54.1795 37.0388 56.7563C35.7979 57.6479 34.4831 58.432 33.1088 59.1C32.0588 59.595 30.93 60 30 60C29.07 60 27.945 59.595 26.8913 59.1C25.5169 58.432 24.2022 57.6479 22.9613 56.7563C19.3726 54.1794 16.191 51.0786 13.5225 47.5575C7.23002 39.3263 2.04377 26.8838 4.27877 10.095C4.4201 9.01777 4.86243 8.00226 5.55496 7.16513C6.24749 6.32799 7.16211 5.70319 8.19377 5.3625C11.7757 4.18803 15.3855 3.10022 19.02 2.1Z" fill="#553DF7"/>
<path d="M35.625 24.375C35.6256 25.5387 35.2653 26.674 34.5936 27.6243C33.922 28.5747 32.9722 29.2933 31.875 29.6812L33.3188 37.1437C33.3713 37.4152 33.3631 37.6948 33.2949 37.9627C33.2267 38.2306 33.1 38.4802 32.9241 38.6934C32.7481 38.9066 32.5272 39.0783 32.2771 39.1961C32.027 39.314 31.754 39.375 31.4775 39.375H28.5225C28.2464 39.3745 27.9737 39.313 27.7241 39.1949C27.4745 39.0769 27.254 38.9051 27.0785 38.6919C26.9029 38.4788 26.7766 38.2295 26.7086 37.9618C26.6406 37.6942 26.6325 37.4148 26.685 37.1437L28.125 29.6812C27.1529 29.3375 26.2939 28.7332 25.642 27.9343C24.99 27.1355 24.5702 26.1728 24.4284 25.1515C24.2866 24.1301 24.4283 23.0895 24.838 22.1432C25.2476 21.197 25.9095 20.3815 26.7512 19.786C27.593 19.1905 28.5822 18.8377 29.6108 18.7664C30.6395 18.6951 31.668 18.9079 32.5839 19.3815C33.4998 19.8551 34.2678 20.5714 34.8042 21.4521C35.3405 22.3327 35.6245 23.3439 35.625 24.375Z" fill="#553DF7"/>
</svg>
