<svg width="60" height="60" viewBox="0 0 60 60" fill="none" xmlns="http://www.w3.org/2000/svg">
<path d="M57.6901 22.9313C57.8787 22.7482 58.0253 22.5263 58.1199 22.2811C58.2145 22.0358 58.2548 21.773 58.238 21.5107C58.2213 21.2484 58.1479 20.9928 58.0229 20.7616C57.8978 20.5303 57.7242 20.329 57.5139 20.1713C49.5189 14.3586 39.8847 11.2348 30.0001 11.2501C19.7214 11.2501 10.2114 14.5576 2.48635 20.1713C2.27577 20.3287 2.10181 20.5298 1.97645 20.7609C1.85109 20.992 1.77731 21.2475 1.7602 21.5098C1.74309 21.7722 1.78306 22.0351 1.87734 22.2805C1.97163 22.5259 2.11799 22.7479 2.30635 22.9313C2.63408 23.2541 3.06574 23.4501 3.52447 23.4845C3.98319 23.5188 4.43922 23.3892 4.81135 23.1188C12.1431 17.8275 20.9584 14.9862 30.0001 15.0001C39.4014 15.0001 48.1013 18.0076 55.1851 23.1151C55.9538 23.6701 57.0226 23.6026 57.6901 22.9313Z" fill="#553DF7"/>
<path d="M49.6089 31.0163C49.8021 30.8299 49.9514 30.6027 50.0459 30.3514C50.1403 30.1 50.1776 29.8308 50.1549 29.5633C50.1323 29.2957 50.0504 29.0366 49.9151 28.8047C49.7797 28.5727 49.5945 28.3739 49.3727 28.2225C43.6066 24.477 36.8759 22.4888 30.0002 22.5C22.8564 22.5 16.2002 24.6 10.6277 28.2225C10.4047 28.373 10.2184 28.5715 10.0822 28.8034C9.94609 29.0354 9.86366 29.2949 9.841 29.5629C9.81833 29.8309 9.85601 30.1005 9.95127 30.3521C10.0465 30.6036 10.1969 30.8305 10.3914 31.0163C10.7109 31.3281 11.127 31.5221 11.5712 31.5664C12.0155 31.6107 12.4616 31.5027 12.8364 31.26C17.959 27.979 23.9169 26.2399 30.0002 26.25C36.0822 26.2407 42.0387 27.9797 47.1602 31.26C47.9327 31.755 48.9602 31.665 49.6089 31.0163ZM41.4227 39.2025C42.2702 38.355 42.1164 36.9338 41.0477 36.39C37.6258 34.6487 33.8396 33.744 30.0002 33.75C26.0252 33.75 22.2677 34.7025 18.9527 36.39C17.8839 36.9338 17.7302 38.355 18.5777 39.2025L18.6339 39.2588C19.2339 39.8588 20.1602 39.9713 20.9252 39.5963C23.7498 38.212 26.8546 37.4948 30.0002 37.5C33.2552 37.5 36.3377 38.2538 39.0752 39.6C39.8364 39.975 40.7627 39.8625 41.3627 39.2588L41.4227 39.2025ZM33.9752 46.65C34.7102 45.915 34.7177 44.7 33.8252 44.175C32.6682 43.4864 31.3465 43.1236 30.0002 43.125C28.6538 43.1236 27.3321 43.4864 26.1752 44.175C25.2827 44.7 25.2902 45.915 26.0252 46.65L28.6727 49.2975C29.0243 49.6491 29.5011 49.8465 29.9983 49.8465C30.4955 49.8465 30.9723 49.6491 31.3239 49.2975L33.9752 46.6463V46.65Z" fill="#553DF7"/>
</svg>
